<svg width="44" height="39" viewBox="0 0 44 39" fill="none" xmlns="http://www.w3.org/2000/svg">
<path d="M40.446 3.59126C38.142 1.28726 35.0918 0.0279839 31.8363 0.0279839C28.5809 0.0279839 25.5213 1.29658 23.2173 3.60058L22.014 4.80389L20.792 3.58193C18.488 1.27793 15.4191 0 12.1637 0C8.91756 0 5.858 1.2686 3.56332 3.56327C1.25932 5.86727 -0.00927686 8.92684 5.10772e-05 12.1823C5.10772e-05 15.4377 1.27798 18.488 3.58198 20.792L21.0999 38.3098C21.3424 38.5524 21.6689 38.683 21.986 38.683C22.3032 38.683 22.6296 38.5617 22.8722 38.3192L40.4273 20.8293C42.7313 18.5253 44 15.4657 44 12.2103C44.0093 8.95482 42.75 5.89526 40.446 3.59126ZM38.655 19.0477L21.986 35.6514L5.35429 19.0197C3.52601 17.1914 2.5186 14.7661 2.5186 12.1823C2.5186 9.59845 3.51668 7.17319 5.34496 5.35424C7.16391 3.53529 9.58917 2.52787 12.1637 2.52787C14.7475 2.52787 17.1821 3.53529 19.0104 5.36357L21.1185 7.47168C21.6129 7.96606 22.4058 7.96606 22.9001 7.47168L24.9896 5.38222C26.8179 3.55395 29.2525 2.54653 31.827 2.54653C34.4015 2.54653 36.8268 3.55395 38.655 5.37289C40.4833 7.20117 41.4814 9.62643 41.4814 12.2103C41.4907 14.7941 40.4833 17.2194 38.655 19.0477Z" fill="#EE1D52"/>
</svg>
